<svg xmlns="http://www.w3.org/2000/svg" width="0" height="0" style="position:absolute" aria-hidden="true">
  <defs>
    <symbol id="icon-cloud" viewBox="0 0 200 80">
      <path d="M30 60 Q10 60 10 40 Q10 20 30 22 Q40 5 60 12 Q80 0 95 18 Q120 12 125 35 Q145 38 145 55 Q150 72 130 70 Q115 78 100 70 Q82 78 68 70 Q52 78 40 70 Q28 72 30 60 Z"/>
    </symbol>
    <symbol id="icon-arrow-right" viewBox="0 0 24 24">
      <path d="M8.59 16.59L13.17 12 8.59 7.41 10 6l6 6-6 6z"/>
    </symbol>
    <symbol id="icon-wave" viewBox="0 0 48 6">
      <path d="M0 3 Q 6 0 12 3 T 24 3 T 36 3 T 48 3" stroke="currentColor" stroke-width="1" fill="none"/>
    </symbol>
    <symbol id="icon-phone" viewBox="0 0 24 24">
      <path d="M6.6 10.8a15.1 15.1 0 0 0 6.6 6.6l2.2-2.2a1 1 0 0 1 1-.2 11.4 11.4 0 0 0 3.6.6 1 1 0 0 1 1 1V20a1 1 0 0 1-1 1A17 17 0 0 1 3 4a1 1 0 0 1 1-1h3.5a1 1 0 0 1 1 1 11.4 11.4 0 0 0 .6 3.6 1 1 0 0 1-.2 1z"/>
    </symbol>
    <symbol id="icon-instagram" viewBox="0 0 24 24">
      <path d="M12 2.2c3.2 0 3.6 0 4.8.1 1.2.1 1.8.2 2.2.4.6.2 1 .5 1.5 1s.7.9 1 1.5c.2.4.4 1 .4 2.2.1 1.2.1 1.6.1 4.8s0 3.6-.1 4.8c-.1 1.2-.2 1.8-.4 2.2-.2.6-.5 1-1 1.5s-.9.7-1.5 1c-.4.2-1 .4-2.2.4-1.2.1-1.6.1-4.8.1s-3.6 0-4.8-.1c-1.2-.1-1.8-.2-2.2-.4-.6-.2-1-.5-1.5-1s-.7-.9-1-1.5c-.2-.4-.4-1-.4-2.2-.1-1.2-.1-1.6-.1-4.8s0-3.6.1-4.8c.1-1.2.2-1.8.4-2.2.2-.6.5-1 1-1.5s.9-.7 1.5-1c.4-.2 1-.4 2.2-.4 1.2-.1 1.6-.1 4.8-.1zm0 5.6a4.2 4.2 0 1 0 0 8.4 4.2 4.2 0 0 0 0-8.4zm0 6.9a2.7 2.7 0 1 1 0-5.4 2.7 2.7 0 0 1 0 5.4zm5.4-7a1 1 0 1 1-2 0 1 1 0 0 1 2 0z"/>
    </symbol>
    <symbol id="icon-mail" viewBox="0 0 24 24">
      <g fill="none" stroke="currentColor" stroke-width="2" stroke-linecap="round" stroke-linejoin="round">
        <rect x="2" y="4" width="20" height="16" rx="2"/>
        <path d="m22 7-8.97 5.7a1.94 1.94 0 0 1-2.06 0L2 7"/>
      </g>
    </symbol>
    <symbol id="icon-calendar" viewBox="0 0 24 24">
      <g fill="none" stroke="currentColor" stroke-width="2" stroke-linecap="round" stroke-linejoin="round">
        <path d="M8 2v4"/>
        <path d="M16 2v4"/>
        <rect x="3" y="4" width="18" height="18" rx="2"/>
        <path d="M3 10h18"/>
        <path d="M8 14h.01"/>
        <path d="M12 14h.01"/>
        <path d="M16 14h.01"/>
        <path d="M8 18h.01"/>
        <path d="M12 18h.01"/>
        <path d="M16 18h.01"/>
      </g>
    </symbol>
    <symbol id="icon-line" viewBox="0 0 24 24">
      <path d="M12 2C6.48 2 2 5.82 2 10.5c0 4.21 3.74 7.74 8.79 8.4.34.07.81.23.93.52.1.27.07.68.03.95l-.15.9c-.05.27-.21 1.07.94.58s6.23-3.67 8.5-6.28C22.94 13.42 22 12.04 22 10.5 22 5.82 17.52 2 12 2zm-3.06 11.06H6.75a.56.56 0 0 1-.56-.56V8.69c0-.31.25-.56.56-.56s.56.25.56.56v3.25h1.63c.31 0 .56.25.56.56s-.25.56-.56.56zm1.78-.56a.56.56 0 0 1-1.12 0V8.69a.56.56 0 0 1 1.12 0zm4.12 0c0 .22-.13.42-.33.51a.56.56 0 0 1-.6-.1l-2.28-3.1v2.69a.56.56 0 0 1-1.12 0V8.69c0-.22.13-.42.33-.51a.56.56 0 0 1 .6.1l2.28 3.1V8.69a.56.56 0 0 1 1.12 0zm2.91-2.75a.56.56 0 0 1 0 1.12h-1.63v.94h1.63a.56.56 0 0 1 0 1.12h-2.19a.56.56 0 0 1-.56-.56V8.69c0-.31.25-.56.56-.56h2.19a.56.56 0 0 1 0 1.12h-1.63v.94z"/>
    </symbol>
    <symbol id="icon-leaf" viewBox="0 0 40 40">
      <path d="M6 34 Q 14 10 34 8 Q 32 26 8 34 Z" fill="none" stroke="currentColor" stroke-width="1.6" stroke-linecap="round" stroke-linejoin="round"/>
      <path d="M8 34 Q 20 24 32 12" fill="none" stroke="currentColor" stroke-width="1.2" stroke-linecap="round"/>
    </symbol>
    <symbol id="icon-sprout" viewBox="0 0 40 40">
      <path d="M20 36 L 20 18" fill="none" stroke="currentColor" stroke-width="1.6" stroke-linecap="round"/>
      <path d="M20 22 Q 10 18 8 8 Q 18 10 20 22" fill="none" stroke="currentColor" stroke-width="1.4" stroke-linecap="round" stroke-linejoin="round"/>
      <path d="M20 24 Q 30 20 32 10 Q 22 12 20 24" fill="none" stroke="currentColor" stroke-width="1.4" stroke-linecap="round" stroke-linejoin="round"/>
    </symbol>
    <symbol id="icon-underline-hand" viewBox="0 0 120 10">
      <path d="M2 6 Q 30 2 60 5 T 118 4" fill="none" stroke="currentColor" stroke-width="1.6" stroke-linecap="round"/>
    </symbol>
    <symbol id="icon-flow-01" viewBox="0 0 160 160">
      <g fill="none" stroke="currentColor" stroke-width="1.8" stroke-linecap="round" stroke-linejoin="round">
        <path d="M10 128 Q 80 122 150 128" opacity="0.45"/>
        <path d="M48 122 L 48 80 L 84 52 L 120 80 L 120 122 Z" fill="rgba(238,245,251,0.8)"/>
        <path d="M40 82 L 84 46 L 128 82" stroke-width="1.6"/>
        <rect x="62" y="92" width="16" height="18" fill="rgba(220,232,244,0.6)"/>
        <rect x="92" y="96" width="14" height="14" fill="rgba(220,232,244,0.6)"/>
        <path d="M84 64 L 84 74 M80 70 L 88 70" opacity="0.6"/>
        <circle cx="24" cy="108" r="4" fill="rgba(46,125,209,0.35)"/>
        <path d="M18 128 Q 24 118 30 128" fill="rgba(46,125,209,0.25)"/>
        <circle cx="138" cy="110" r="3.5" fill="rgba(46,125,209,0.35)"/>
        <path d="M132 128 Q 138 120 144 128" fill="rgba(46,125,209,0.25)"/>
        <g opacity="0.7">
          <circle cx="14" cy="126" r="2.5" fill="rgba(91,179,240,0.6)"/>
          <path d="M14 128 L 14 134"/>
          <circle cx="146" cy="125" r="2.5" fill="rgba(91,179,240,0.6)"/>
          <path d="M146 127 L 146 134"/>
        </g>
        <circle cx="36" cy="28" r="8" fill="rgba(255,220,150,0.6)" stroke-width="1.4"/>
        <g stroke-width="1.2" opacity="0.6">
          <path d="M36 12 L 36 18"/>
          <path d="M36 38 L 36 44"/>
          <path d="M20 28 L 26 28"/>
          <path d="M46 28 L 52 28"/>
        </g>
      </g>
    </symbol>
    <symbol id="icon-flow-02" viewBox="0 0 160 160">
      <g fill="none" stroke="currentColor" stroke-width="1.8" stroke-linecap="round" stroke-linejoin="round">
        <path d="M8 128 Q 80 122 152 128" opacity="0.45"/>
        <path d="M14 122 L 14 86 L 40 68 L 66 86 L 66 122 Z" fill="rgba(238,245,251,0.8)"/>
        <path d="M8 88 L 40 64 L 72 88" stroke-width="1.6"/>
        <rect x="30" y="96" width="12" height="14" fill="rgba(220,232,244,0.6)"/>
        <path d="M94 122 L 94 86 L 120 68 L 146 86 L 146 122 Z" fill="rgba(238,245,251,0.8)"/>
        <path d="M88 88 L 120 64 L 152 88" stroke-width="1.6"/>
        <rect x="110" y="96" width="12" height="14" fill="rgba(220,232,244,0.6)"/>
        <path d="M74 96 Q 80 90 86 96 Q 86 102 80 110 Q 74 102 74 96 Z" fill="rgba(91,179,240,0.5)" stroke-width="1.4"/>
        <path d="M72 54 L 88 54" stroke-dasharray="3 4" opacity="0.55"/>
        <path d="M88 54 L 85 51 M88 54 L 85 57" opacity="0.55"/>
        <path d="M88 46 L 72 46" stroke-dasharray="3 4" opacity="0.55"/>
        <path d="M72 46 L 75 43 M72 46 L 75 49" opacity="0.55"/>
      </g>
    </symbol>
    <symbol id="icon-flow-03" viewBox="0 0 160 160">
      <g fill="none" stroke="currentColor" stroke-width="1.8" stroke-linecap="round" stroke-linejoin="round">
        <path d="M8 128 Q 80 122 152 128" opacity="0.45"/>
        <path d="M38 122 L 38 72 L 82 42 L 126 72 L 126 122 Z" fill="rgba(238,245,251,0.85)"/>
        <path d="M30 74 L 82 38 L 134 74" stroke-width="1.6"/>
        <rect x="54" y="84" width="16" height="18" fill="rgba(255,220,150,0.65)" stroke-width="1.4"/>
        <rect x="94" y="84" width="16" height="18" fill="rgba(255,220,150,0.5)" stroke-width="1.4"/>
        <path d="M74 122 L 74 100 Q 82 96 90 100 L 90 122" fill="rgba(220,232,244,0.6)"/>
        <circle cx="86" cy="112" r="1" fill="currentColor"/>
        <path d="M18 122 L 18 104"/>
        <path d="M10 106 Q 18 90 26 106 Q 20 110 18 108 Q 16 110 10 106 Z" fill="rgba(91,179,240,0.35)"/>
        <g fill="currentColor" opacity="0.55">
          <circle cx="142" cy="60" r="1.4"/>
          <circle cx="150" cy="80" r="1.2"/>
          <circle cx="146" cy="96" r="1"/>
          <circle cx="24" cy="66" r="1.2"/>
          <circle cx="14" cy="80" r="1"/>
        </g>
      </g>
    </symbol>
    <symbol id="brush-wave-01" viewBox="0 0 1200 100" overflow="visible">
      <path d="M 30 75 C 130 76, 220 70, 280 50 C 305 36, 325 24, 350 32 C 380 42, 410 65, 440 72 C 490 80, 540 80, 580 70 C 610 60, 635 40, 660 32 C 680 26, 695 32, 715 45 C 740 60, 770 68, 810 67 C 880 65, 970 55, 1060 38 C 1110 28, 1145 22, 1175 15"
            fill="none"
            stroke="currentColor"
            stroke-width="2.2"
            stroke-linecap="round"
            stroke-linejoin="round"
            vector-effect="non-scaling-stroke"/>
    </symbol>
    <symbol id="icon-flow-04" viewBox="0 0 160 160">
      <g fill="none" stroke="currentColor" stroke-width="1.8" stroke-linecap="round" stroke-linejoin="round">
        <path d="M0 128 Q 40 108 80 106 Q 120 108 160 128" fill="rgba(238,245,251,0.85)"/>
        <path d="M60 107 L 60 82 L 80 68 L 100 82 L 100 107" fill="rgba(244,248,252,0.9)"/>
        <path d="M54 84 L 80 64 L 106 84" stroke-width="1.6"/>
        <rect x="68" y="92" width="10" height="12" fill="rgba(255,220,150,0.6)"/>
        <path d="M80 70 Q 92 50 96 36 Q 100 22 108 14" stroke-dasharray="3 5" opacity="0.55"/>
        <path d="M110 34 Q 102 34 102 28 Q 102 22 110 24 Q 114 18 122 22 Q 130 20 132 28 Q 138 30 136 36 Q 128 38 114 36 Q 110 38 110 34 Z" fill="rgba(220,232,244,0.7)" stroke-width="1.4"/>
        <path d="M20 46 Q 14 46 14 42 Q 14 38 20 38 Q 24 34 30 38 Q 38 36 38 42 Q 42 44 40 48 Q 30 50 22 48 Z" fill="rgba(220,232,244,0.55)" stroke-width="1.4" opacity="0.8"/>
        <path d="M124 62 Q 128 58 132 62 Q 136 58 140 62" stroke-width="1.5"/>
        <path d="M42 68 Q 46 64 50 68 Q 54 64 58 68" stroke-width="1.4" opacity="0.7"/>
        <g fill="currentColor" opacity="0.6">
          <circle cx="140" cy="20" r="1.2"/>
          <circle cx="26" cy="22" r="1"/>
          <circle cx="58" cy="16" r="1.4"/>
        </g>
      </g>
    </symbol>
  </defs>
</svg>
